:SAMPLES-PER-SECOND 30
:FULLY-SPECIFIED
:DEGREES
1390
root  -60.3433 39.6009 1.42816 -7.32924 -84.7822 3.78131
RightUpLeg  -14.7289 -9.18184 -1.87466
RightLeg  15.5577 5.35356 3.42986
RightFoot  1.43154 0.0140308 -0.0372137
RightToes  6.35927e-011 1.30204e-014 -6.03759e-014
Spine  11.0566 -2.83595 10.1019
Spine1  11.2988 -1.21355 -2.14912
HEad  -21.5781 -0.381305 -2.29787
LeftShoulder1  1.76027 -2.55627 -22.7516
LeftArm  -2.62717 -45.1551 -38.3729
LeftForeArm  -18.0586 -30.6306 -7.60877
LeftHand  -0.0916322 2.21762 2.98522
RightShoulder  0.553771 -1.36533 19.6814
RightArm  -3.7173 41.9525 40.3691
RightForeArm  -26.5515 42.999 11.9524
RightHand  -0.169218 7.32585 -1.90171
LeftUpLeg  -16.3314 0.811452 4.47066
LeftLeg  49.4125 -2.84186 -3.12692
LeftFoot  -5.17918 0.32397 -5.4156
LeftToes  -7.16024e-010 4.79583e-011 -5.98286e-011
1391
root  -60.7731 39.7045 1.20819 -8.38782 -84.5958 5.31927
RightUpLeg  -14.3801 -9.08619 -1.72326
RightLeg  15.2587 5.11839 3.40892
RightFoot  1.12401 0.0486578 -0.376079
RightToes  6.35927e-011 1.30204e-014 -6.03759e-014
Spine  11.1557 -2.87219 9.97933
Spine1  11.1166 -1.27727 -2.2431
HEad  -22.2289 -0.439985 -1.90003
LeftShoulder1  1.80053 -2.7226 -22.6166
LeftArm  -1.99613 -45.623 -37.8732
LeftForeArm  -18.9356 -29.0528 -7.24148
LeftHand  -0.0855387 2.41014 2.86991
RightShoulder  0.579596 -1.2635 19.6424
RightArm  -2.28373 43.1835 41.2091
RightForeArm  -27.4853 41.2131 11.3195
RightHand  -0.237098 7.93301 -2.43703
LeftUpLeg  -18.3957 1.67027 4.48056
LeftLeg  50.5948 -2.54599 -2.88474
LeftFoot  -6.82158 0.224185 -4.66951
LeftToes  -7.16024e-010 4.79583e-011 -5.98286e-011
1392
root  -61.1758 39.7965 1.02325 -9.08906 -84.3359 6.3786
RightUpLeg  -13.9296 -9.19513 -1.66663
RightLeg  15.0096 4.98327 3.53342
RightFoot  0.555474 0.0785773 -0.717395
RightToes  6.35927e-011 1.30204e-014 -6.03759e-014
Spine  11.3321 -2.96212 9.98279
Spine1  10.9122 -1.31743 -2.59504
HEad  -22.7248 -0.763882 -1.30574
LeftShoulder1  1.8436 -2.93297 -22.3257
LeftArm  -1.66369 -46.0736 -37.4124
LeftForeArm  -19.7608 -27.6683 -6.9318
LeftHand  -0.0896881 2.21359 2.77122
RightShoulder  0.582011 -1.26507 19.7805
RightArm  -1.41017 44.084 41.8861
RightForeArm  -27.2528 40.01 10.8781
RightHand  -0.245187 8.51124 -2.42726
LeftUpLeg  -19.9051 1.97092 4.43158
LeftLeg  50.0498 -2.63067 -2.93028
LeftFoot  -8.17497 0.179656 -4.73285
LeftToes  -7.16024e-010 4.79583e-011 -5.98286e-011
1393
root  -61.5653 39.8817 0.856135 -9.19979 -84.1829 6.81982
RightUpLeg  -13.4062 -9.2419 -1.54983
RightLeg  14.6309 4.86311 3.64053
RightFoot  0.11517 0.0990226 -0.976804
RightToes  6.35927e-011 1.30204e-014 -6.03759e-014
Spine  11.4149 -2.94776 9.93307
Spine1  10.7389 -1.29196 -2.88535
HEad  -23.0405 -1.31393 -0.852301
LeftShoulder1  1.87908 -3.11819 -22.0448
LeftArm  -2.01257 -46.3916 -37.1179
LeftForeArm  -20.0494 -26.7899 -6.73003
LeftHand  -0.0947666 2.06583 2.89834
RightShoulder  0.585496 -1.25915 19.8738
RightArm  -0.981497 44.8767 42.3848
RightForeArm  -26.935 38.934 10.493
RightHand  -0.231407 8.84298 -2.27177
LeftUpLeg  -20.8331 2.04059 4.41798
LeftLeg  47.6531 -2.99344 -3.09921
LeftFoot  -8.8157 0.157581 -4.74462
LeftToes  -7.16024e-010 4.79583e-011 -5.98286e-011
